# xmcd
#
# Track frame offsets: 
#        150
#        15680
#        31425
#        45142
#        61417
#        79965
#        100315
#        109107
#        128185
#        145180
#        163982
#        182860
#        203685
#
# Disc length: 2917 seconds
#
# Revision: 2
# Processed by: cddbd v1.5.2PL0 Copyright (c) Steve Scherf et al.
# Submitted via: ExactAudioCopy v1.0b4
#
DISCID=b00b630d
DTITLE=斉藤由貴 - CD-BOX1 DISC 5 「ripple／TO YOU」
DYEAR=2003
DGENRE=JPop
TTITLE0=さよなら さよなら!
TTITLE1=Scooter 17
TTITLE2=ぴぃひゃら
TTITLE3=冒険小僧
TTITLE4=うしろの正面だあれ
TTITLE5=あまのじゃく
TTITLE6=Ave Maria
TTITLE7=How come 〜どうしてこうなの〜
TTITLE8=When
TTITLE9=What
TTITLE10=Why
TTITLE11=Where〜金色の夜〜
TTITLE12=Who
EXTD=YEAR: 2003
EXTT0=
EXTT1=
EXTT2=
EXTT3=
EXTT4=
EXTT5=
EXTT6=
EXTT7=
EXTT8=
EXTT9=
EXTT10=
EXTT11=
EXTT12=
PLAYORDER=
